<?xml version="1.0" encoding="utf-8"?>
<!-- Generator: Adobe Illustrator 26.2.1, SVG Export Plug-In . SVG Version: 6.00 Build 0)  -->
<svg version="1.1" id="图层_1" xmlns="http://www.w3.org/2000/svg" xmlns:xlink="http://www.w3.org/1999/xlink" x="0px" y="0px"
	 width="200px" height="200px" viewBox="0 0 200 200" style="enable-background:new 0 0 200 200;" xml:space="preserve">
<style type="text/css">
	.st0{fill:#FFFFFF;}
</style>
<path class="st0" d="M104.4,100L174,30.4c1.2-1.2,1.2-3.2,0-4.4c-1.2-1.2-3.2-1.2-4.4,0L100,95.6L30.4,26c-1.2-1.2-3.2-1.2-4.4,0
	c-1.2,1.2-1.2,3.2,0,4.4L95.6,100L26,169.6c-1.2,1.2-1.2,3.2,0,4.4c1.2,1.2,3.2,1.2,4.4,0l69.6-69.6l69.6,69.6
	c1.2,1.2,3.2,1.2,4.4,0c1.2-1.2,1.2-3.2,0-4.4L104.4,100z"/>
</svg>
